<?xml version="1.0" encoding="UTF-8"?>
<svg xmlns="http://www.w3.org/2000/svg" viewBox="175 45 2050 910" width="2050" height="910" role="img" aria-label="AS-IS: процес акредитації учасника — поточний, поштовий обмін між відділами (експорт із Camunda Modeler)"><title>AS-IS: процес акредитації учасника (експорт із Camunda Modeler)</title><rect x="175" y="45" width="2050" height="910" fill="#ffffff"/><g class="viewport" transform="matrix(1 0 0 1 30 20)"><g class="layer-root-1" data-element-id="Collaboration_AsIs"><g class="djs-group"><g class="djs-element djs-shape" data-element-id="Participant_AsIs" style="display: block;" transform="matrix(1 0 0 1 160 40)"><g class="djs-visual"><rect x="0" y="0" width="2020" height="880" rx="0" ry="0" style="stroke-linecap: round; stroke-linejoin: round; stroke: rgb(34, 36, 42); stroke-width: 1.5px; fill: white; fill-opacity: 0.95;"></rect><path style="fill: none; stroke-linecap: round; stroke-linejoin: round; stroke: rgb(34, 36, 42); stroke-width: 1.5px;" d="M30,0L30,880"></path><text lineHeight="1.2" class="djs-label" style="font-family: Arial, sans-serif; font-size: 12px; font-weight: normal; fill: rgb(34, 36, 42);" transform="matrix(-1.83697e-16 -1 1 -1.83697e-16 0 880)"><tspan x="354.546875" y="18.6">Акредитація учасника — AS-IS</tspan></text></g></g><g class="djs-children"><g class="djs-group"><g class="djs-element djs-shape" data-element-id="Lane_Applicant" style="display: block;" transform="matrix(1 0 0 1 190 40)"><g class="djs-visual"><rect x="0" y="0" width="1990" height="150" rx="0" ry="0" style="stroke-linecap: round; stroke-linejoin: round; stroke: rgb(34, 36, 42); stroke-width: 1.5px; fill: white; fill-opacity: 0.25;"></rect><text lineHeight="1.2" class="djs-label" style="font-family: Arial, sans-serif; font-size: 12px; font-weight: normal; fill: rgb(34, 36, 42);" transform="matrix(-1.83697e-16 -1 1 -1.83697e-16 0 150)"><tspan x="23.6953125" y="18.6">Заявник (трейдер)</tspan></text></g></g></g><g class="djs-group"><g class="djs-element djs-shape" data-element-id="Lane_Accreditation" style="display: block;" transform="matrix(1 0 0 1 190 190)"><g class="djs-visual"><rect x="0" y="0" width="1990" height="170" rx="0" ry="0" style="stroke-linecap: round; stroke-linejoin: round; stroke: rgb(34, 36, 42); stroke-width: 1.5px; fill: white; fill-opacity: 0.25;"></rect><text lineHeight="1.2" class="djs-label" style="font-family: Arial, sans-serif; font-size: 12px; font-weight: normal; fill: rgb(34, 36, 42);" transform="matrix(-1.83697e-16 -1 1 -1.83697e-16 0 170)"><tspan x="34.0185546875" y="18.6">Відділ акредитації</tspan></text></g></g></g><g class="djs-group"><g class="djs-element djs-shape" data-element-id="Lane_Legal" style="display: block;" transform="matrix(1 0 0 1 190 360)"><g class="djs-visual"><rect x="0" y="0" width="1990" height="130" rx="0" ry="0" style="stroke-linecap: round; stroke-linejoin: round; stroke: rgb(34, 36, 42); stroke-width: 1.5px; fill: white; fill-opacity: 0.25;"></rect><text lineHeight="1.2" class="djs-label" style="font-family: Arial, sans-serif; font-size: 12px; font-weight: normal; fill: rgb(34, 36, 42);" transform="matrix(-1.83697e-16 -1 1 -1.83697e-16 0 130)"><tspan x="14.2265625" y="18.6">Юридичний відділ</tspan></text></g></g></g><g class="djs-group"><g class="djs-element djs-shape" data-element-id="Lane_AML" style="display: block;" transform="matrix(1 0 0 1 190 490)"><g class="djs-visual"><rect x="0" y="0" width="1990" height="130" rx="0" ry="0" style="stroke-linecap: round; stroke-linejoin: round; stroke: rgb(34, 36, 42); stroke-width: 1.5px; fill: white; fill-opacity: 0.25;"></rect><text lineHeight="1.2" class="djs-label" style="font-family: Arial, sans-serif; font-size: 12px; font-weight: normal; fill: rgb(34, 36, 42);" transform="matrix(-1.83697e-16 -1 1 -1.83697e-16 0 130)"><tspan x="0.5517578125" y="18.6">Фінансовий моніторинг</tspan></text></g></g></g><g class="djs-group"><g class="djs-element djs-shape" data-element-id="Lane_Committee" style="display: block;" transform="matrix(1 0 0 1 190 620)"><g class="djs-visual"><rect x="0" y="0" width="1990" height="170" rx="0" ry="0" style="stroke-linecap: round; stroke-linejoin: round; stroke: rgb(34, 36, 42); stroke-width: 1.5px; fill: white; fill-opacity: 0.25;"></rect><text lineHeight="1.2" class="djs-label" style="font-family: Arial, sans-serif; font-size: 12px; font-weight: normal; fill: rgb(34, 36, 42);" transform="matrix(-1.83697e-16 -1 1 -1.83697e-16 0 170)"><tspan x="37.1787109375" y="18.6">Біржовий комітет</tspan></text></g></g></g><g class="djs-group"><g class="djs-element djs-shape" data-element-id="Lane_CCP" style="display: block;" transform="matrix(1 0 0 1 190 790)"><g class="djs-visual"><rect x="0" y="0" width="1990" height="130" rx="0" ry="0" style="stroke-linecap: round; stroke-linejoin: round; stroke: rgb(34, 36, 42); stroke-width: 1.5px; fill: white; fill-opacity: 0.25;"></rect><text lineHeight="1.2" class="djs-label" style="font-family: Arial, sans-serif; font-size: 12px; font-weight: normal; fill: rgb(34, 36, 42);" transform="matrix(-1.83697e-16 -1 1 -1.83697e-16 0 130)"><tspan x="20.9228515625" y="11.4">УКД (клірингова </tspan><tspan x="43.6875" y="25.799999999999997">палата)</tspan></text></g></g></g><g class="djs-group"><g class="djs-element djs-shape" data-element-id="StartEvent_1" style="display: block;" transform="matrix(1 0 0 1 300 97)"><g class="djs-visual"><circle cx="18" cy="18" r="18" style="stroke-linecap: round; stroke-linejoin: round; stroke: rgb(34, 36, 42); stroke-width: 2px; fill: white; fill-opacity: 0.95;"></circle></g></g></g><g class="djs-group"><g class="djs-element djs-shape" data-element-id="StartEvent_1_label" style="display: block;" transform="matrix(1 0 0 1 303 133)"><g class="djs-visual"><text lineHeight="1.2" class="djs-label" style="font-family: Arial, sans-serif; font-size: 11px; font-weight: normal; fill: rgb(34, 36, 42);"><tspan x="0" y="9.899999999999999">Старт</tspan></text></g></g></g><g class="djs-group"><g class="djs-element djs-shape" data-element-id="Task_SubmitForm" style="display: block;" transform="matrix(1 0 0 1 400 75)"><g class="djs-visual"><rect x="0" y="0" width="140" height="80" rx="10" ry="10" style="stroke-linecap: round; stroke-linejoin: round; stroke: rgb(34, 36, 42); stroke-width: 2px; fill: white; fill-opacity: 0.95;"></rect><text lineHeight="1.2" class="djs-label" style="font-family: Arial, sans-serif; font-size: 12px; font-weight: normal; fill: rgb(34, 36, 42);"><tspan x="29.7109375" y="36.4">Подати анкету </tspan><tspan x="48.078125" y="50.8">поштою</tspan></text></g></g></g><g class="djs-group"><g class="djs-element djs-shape" data-element-id="Gateway_PackageComplete" style="display: block;" transform="matrix(1 0 0 1 840 255)"><g class="djs-visual"><polygon points="25,0 50,25 25,50 0,25" style="stroke-linecap: round; stroke-linejoin: round; stroke: rgb(34, 36, 42); stroke-width: 2px; fill: white; fill-opacity: 0.95;"></polygon><path d="m 16,15 7.42857142857143,9.714285714285715 -7.42857142857143,9.714285714285715 3.428571428571429,0 5.714285714285715,-7.464228571428572 5.714285714285715,7.464228571428572 3.428571428571429,0 -7.42857142857143,-9.714285714285715 7.42857142857143,-9.714285714285715 -3.428571428571429,0 -5.714285714285715,7.464228571428572 -5.714285714285715,-7.464228571428572 -3.428571428571429,0 z" style="fill: rgb(34, 36, 42); stroke-linecap: round; stroke-linejoin: round; stroke: rgb(34, 36, 42); stroke-width: 1px;"></path></g></g></g><g class="djs-group"><g class="djs-element djs-shape" data-element-id="Gateway_PackageComplete_label" style="display: block;" transform="matrix(1 0 0 1 827 305)"><g class="djs-visual"><text lineHeight="1.2" class="djs-label" style="font-family: Arial, sans-serif; font-size: 11px; font-weight: normal; fill: rgb(34, 36, 42);"><tspan x="0" y="9.899999999999999">Повний пакет?</tspan></text></g></g></g><g class="djs-group"><g class="djs-element djs-shape" data-element-id="Task_CheckLegal" style="display: block;" transform="matrix(1 0 0 1 1170 385)"><g class="djs-visual"><rect x="0" y="0" width="140" height="80" rx="10" ry="10" style="stroke-linecap: round; stroke-linejoin: round; stroke: rgb(34, 36, 42); stroke-width: 2px; fill: white; fill-opacity: 0.95;"></rect><text lineHeight="1.2" class="djs-label" style="font-family: Arial, sans-serif; font-size: 12px; font-weight: normal; fill: rgb(34, 36, 42);"><tspan x="10.2822265625" y="36.4">Перевірити правовий </tspan><tspan x="51.8662109375" y="50.8">статус</tspan></text></g></g></g><g class="djs-group"><g class="djs-element djs-shape" data-element-id="Task_CheckAML" style="display: block;" transform="matrix(1 0 0 1 1170 515)"><g class="djs-visual"><rect x="0" y="0" width="140" height="80" rx="10" ry="10" style="stroke-linecap: round; stroke-linejoin: round; stroke: rgb(34, 36, 42); stroke-width: 2px; fill: white; fill-opacity: 0.95;"></rect><text lineHeight="1.2" class="djs-label" style="font-family: Arial, sans-serif; font-size: 12px; font-weight: normal; fill: rgb(34, 36, 42);"><tspan x="26.1748046875" y="36.4">AML / санкційна </tspan><tspan x="42.6259765625" y="50.8">перевірка</tspan></text></g></g></g><g class="djs-group"><g class="djs-element djs-shape" data-element-id="Gateway_CommitteeDecision" style="display: block;" transform="matrix(1 0 0 1 1420 680)"><g class="djs-visual"><polygon points="25,0 50,25 25,50 0,25" style="stroke-linecap: round; stroke-linejoin: round; stroke: rgb(34, 36, 42); stroke-width: 2px; fill: white; fill-opacity: 0.95;"></polygon><path d="m 16,15 7.42857142857143,9.714285714285715 -7.42857142857143,9.714285714285715 3.428571428571429,0 5.714285714285715,-7.464228571428572 5.714285714285715,7.464228571428572 3.428571428571429,0 -7.42857142857143,-9.714285714285715 7.42857142857143,-9.714285714285715 -3.428571428571429,0 -5.714285714285715,7.464228571428572 -5.714285714285715,-7.464228571428572 -3.428571428571429,0 z" style="fill: rgb(34, 36, 42); stroke-linecap: round; stroke-linejoin: round; stroke: rgb(34, 36, 42); stroke-width: 1px;"></path></g></g></g><g class="djs-group"><g class="djs-element djs-shape" data-element-id="Gateway_CommitteeDecision_label" style="display: block;" transform="matrix(1 0 0 1 1401 730)"><g class="djs-visual"><text lineHeight="1.2" class="djs-label" style="font-family: Arial, sans-serif; font-size: 11px; font-weight: normal; fill: rgb(34, 36, 42);"><tspan x="0" y="9.899999999999999">Рішення комітету </tspan><tspan x="5.969970703125" y="23.099999999999998">(до 10 робочих </tspan><tspan x="32.49658203125" y="36.3">днів)</tspan></text></g></g></g><g class="djs-group"><g class="djs-element djs-shape" data-element-id="EndEvent_Rejected" style="display: block;" transform="matrix(1 0 0 1 1570 687)"><g class="djs-visual"><circle cx="18" cy="18" r="18" style="stroke-linecap: round; stroke-linejoin: round; stroke: rgb(34, 36, 42); stroke-width: 4px; fill: white; fill-opacity: 0.95;"></circle></g></g></g><g class="djs-group"><g class="djs-element djs-shape" data-element-id="EndEvent_Rejected_label" style="display: block;" transform="matrix(1 0 0 1 1564 723)"><g class="djs-visual"><text lineHeight="1.2" class="djs-label" style="font-family: Arial, sans-serif; font-size: 11px; font-weight: normal; fill: rgb(34, 36, 42);"><tspan x="3.062744140625" y="9.899999999999999">Відмова </tspan><tspan x="0" y="23.099999999999998">(поштою)</tspan></text></g></g></g><g class="djs-group"><g class="djs-element djs-shape" data-element-id="Task_SignLease" style="display: block;" transform="matrix(1 0 0 1 1720 75)"><g class="djs-visual"><rect x="0" y="0" width="140" height="80" rx="10" ry="10" style="stroke-linecap: round; stroke-linejoin: round; stroke: rgb(34, 36, 42); stroke-width: 2px; fill: white; fill-opacity: 0.95;"></rect><text lineHeight="1.2" class="djs-label" style="font-family: Arial, sans-serif; font-size: 12px; font-weight: normal; fill: rgb(34, 36, 42);"><tspan x="20.029296875" y="29.200000000000003">Підписати договір </tspan><tspan x="20.685546875" y="43.6">оренди біржового </tspan><tspan x="36.78125" y="58">місця (скан)</tspan></text></g></g></g><g class="djs-group"><g class="djs-element djs-shape" data-element-id="Task_SignClearing" style="display: block;" transform="matrix(1 0 0 1 1720 815)"><g class="djs-visual"><rect x="0" y="0" width="140" height="80" rx="10" ry="10" style="stroke-linecap: round; stroke-linejoin: round; stroke: rgb(34, 36, 42); stroke-width: 2px; fill: white; fill-opacity: 0.95;"></rect><text lineHeight="1.2" class="djs-label" style="font-family: Arial, sans-serif; font-size: 12px; font-weight: normal; fill: rgb(34, 36, 42);"><tspan x="10.7392578125" y="29.200000000000003">Підписати клірингове </tspan><tspan x="17.240234375" y="43.6">членство (окремий </tspan><tspan x="23.1171875" y="58">процес, поштою)</tspan></text></g></g></g><g class="djs-group"><g class="djs-element djs-shape" data-element-id="Task_GetKepTraining" style="display: block;" transform="matrix(1 0 0 1 1920 75)"><g class="djs-visual"><rect x="0" y="0" width="140" height="80" rx="10" ry="10" style="stroke-linecap: round; stroke-linejoin: round; stroke: rgb(34, 36, 42); stroke-width: 2px; fill: white; fill-opacity: 0.95;"></rect><text lineHeight="1.2" class="djs-label" style="font-family: Arial, sans-serif; font-size: 12px; font-weight: normal; fill: rgb(34, 36, 42);"><tspan x="27.3203125" y="36.4">Отримати КЕП, </tspan><tspan x="23.046875" y="50.8">пройти навчання</tspan></text></g></g></g><g class="djs-group"><g class="djs-element djs-shape" data-element-id="Task_ActivateAccess" style="display: block;" transform="matrix(1 0 0 1 1920 235)"><g class="djs-visual"><rect x="0" y="0" width="140" height="80" rx="10" ry="10" style="stroke-linecap: round; stroke-linejoin: round; stroke: rgb(34, 36, 42); stroke-width: 2px; fill: white; fill-opacity: 0.95;"></rect><text lineHeight="1.2" class="djs-label" style="font-family: Arial, sans-serif; font-size: 12px; font-weight: normal; fill: rgb(34, 36, 42);"><tspan x="17.8642578125" y="36.4">Вручну активувати </tspan><tspan x="29.1591796875" y="50.8">доступ у БЕТС</tspan></text></g></g></g><g class="djs-group"><g class="djs-element djs-shape" data-element-id="EndEvent_Active" style="display: block;" transform="matrix(1 0 0 1 2120 257)"><g class="djs-visual"><circle cx="18" cy="18" r="18" style="stroke-linecap: round; stroke-linejoin: round; stroke: rgb(34, 36, 42); stroke-width: 4px; fill: white; fill-opacity: 0.95;"></circle></g></g></g><g class="djs-group"><g class="djs-element djs-shape" data-element-id="EndEvent_Active_label" style="display: block;" transform="matrix(1 0 0 1 2115 293)"><g class="djs-visual"><text lineHeight="1.2" class="djs-label" style="font-family: Arial, sans-serif; font-size: 11px; font-weight: normal; fill: rgb(34, 36, 42);"><tspan x="0" y="9.899999999999999">Активний </tspan><tspan x="3.302001953125" y="23.099999999999998">учасник</tspan></text></g></g></g><g class="djs-group"><g class="djs-element djs-shape" data-element-id="Task_ForwardPackage" style="display: block;" transform="matrix(1 0 0 1 980 240)"><g class="djs-visual"><rect x="0" y="0" width="140" height="80" rx="10" ry="10" style="stroke-linecap: round; stroke-linejoin: round; stroke: rgb(34, 36, 42); stroke-width: 2px; fill: white; fill-opacity: 0.95;"></rect><text lineHeight="1.2" class="djs-label" style="font-family: Arial, sans-serif; font-size: 12px; font-weight: normal; fill: rgb(34, 36, 42);"><tspan x="11.8671875" y="29.200000000000003">Переслати пакет юр. </tspan><tspan x="42.7958984375" y="43.6">відділу та </tspan><tspan x="27.09375" y="58">фінмоніторингу</tspan></text></g></g></g><g class="djs-group"><g class="djs-element djs-shape" data-element-id="Task_CheckCompleteness" style="display: block;" transform="matrix(1 0 0 1 620 240)"><g class="djs-visual"><rect x="0" y="0" width="140" height="80" rx="10" ry="10" style="stroke-linecap: round; stroke-linejoin: round; stroke: rgb(34, 36, 42); stroke-width: 2px; fill: white; fill-opacity: 0.95;"></rect><text lineHeight="1.2" class="djs-label" style="font-family: Arial, sans-serif; font-size: 12px; font-weight: normal; fill: rgb(34, 36, 42);"><tspan x="38.2197265625" y="36.4">Перевірити </tspan><tspan x="30.423828125" y="50.8">комплектність</tspan></text></g></g></g><g class="djs-group"><g class="djs-element djs-connection" data-element-id="SF1" style="display: block;"><g class="djs-visual"><defs><marker id="m-as1" viewBox="0 0 20 20" refX="11" refY="10" markerWidth="10" markerHeight="10" orient="auto"><path d="M 1 5 L 11 10 L 1 15 Z" style="stroke-linecap: round; stroke-linejoin: round; stroke: rgb(34, 36, 42); stroke-width: 1px; fill: rgb(34, 36, 42);"></path></marker></defs><path data-corner-radius="5" style="fill: none; stroke-linecap: round; stroke-linejoin: round; stroke: rgb(34, 36, 42); stroke-width: 2px; marker-end: url(&quot;#m-as1&quot;);" d="M336,115L400,115"></path></g></g></g><g class="djs-group"><g class="djs-element djs-connection" data-element-id="SF4" style="display: block;"><g class="djs-visual"><defs><marker id="m-as4" viewBox="0 0 20 20" refX="11" refY="10" markerWidth="10" markerHeight="10" orient="auto"><path d="M 1 5 L 11 10 L 1 15 Z" style="stroke-linecap: round; stroke-linejoin: round; stroke: rgb(34, 36, 42); stroke-width: 1px; fill: rgb(34, 36, 42);"></path></marker></defs><path data-corner-radius="5" style="fill: none; stroke-linecap: round; stroke-linejoin: round; stroke: rgb(34, 36, 42); stroke-width: 2px; marker-end: url(&quot;#m-as4&quot;);" d="M865,255L865,120C865,117.5,862.5,115,860,115L540,115"></path></g></g></g><g class="djs-group"><g class="djs-element djs-shape" data-element-id="SF4_label" style="display: block;" transform="matrix(1 0 0 1 670 126)"><g class="djs-visual"><text lineHeight="1.2" class="djs-label" style="font-family: Arial, sans-serif; font-size: 11px; font-weight: normal; fill: rgb(34, 36, 42);"><tspan x="0" y="9.899999999999999">ні — повернути </tspan><tspan x="11.350341796875" y="23.099999999999998">на донабір</tspan></text></g></g></g><g class="djs-group"><g class="djs-element djs-connection" data-element-id="SF2" style="display: block;"><g class="djs-visual"><defs><marker id="m-as2" viewBox="0 0 20 20" refX="11" refY="10" markerWidth="10" markerHeight="10" orient="auto"><path d="M 1 5 L 11 10 L 1 15 Z" style="stroke-linecap: round; stroke-linejoin: round; stroke: rgb(34, 36, 42); stroke-width: 1px; fill: rgb(34, 36, 42);"></path></marker></defs><path data-corner-radius="5" style="fill: none; stroke-linecap: round; stroke-linejoin: round; stroke: rgb(34, 36, 42); stroke-width: 2px; marker-end: url(&quot;#m-as2&quot;);" d="M470,155L470,275C470,277.5,472.5,280,475,280L620,280"></path></g></g></g><g class="djs-group"><g class="djs-element djs-connection" data-element-id="Flow_1935hw2" style="display: block;"><g class="djs-visual"><defs><marker id="m-as5" viewBox="0 0 20 20" refX="11" refY="10" markerWidth="10" markerHeight="10" orient="auto"><path d="M 1 5 L 11 10 L 1 15 Z" style="stroke-linecap: round; stroke-linejoin: round; stroke: rgb(34, 36, 42); stroke-width: 1px; fill: rgb(34, 36, 42);"></path></marker></defs><path data-corner-radius="5" style="fill: none; stroke-linecap: round; stroke-linejoin: round; stroke: rgb(34, 36, 42); stroke-width: 2px; marker-end: url(&quot;#m-as5&quot;);" d="M760,280L840,280"></path></g></g></g><g class="djs-group"><g class="djs-element djs-connection" data-element-id="Flow_1vy0kdg" style="display: block;"><g class="djs-visual"><defs><marker id="m-as6" viewBox="0 0 20 20" refX="11" refY="10" markerWidth="10" markerHeight="10" orient="auto"><path d="M 1 5 L 11 10 L 1 15 Z" style="stroke-linecap: round; stroke-linejoin: round; stroke: rgb(34, 36, 42); stroke-width: 1px; fill: rgb(34, 36, 42);"></path></marker></defs><path data-corner-radius="5" style="fill: none; stroke-linecap: round; stroke-linejoin: round; stroke: rgb(34, 36, 42); stroke-width: 2px; marker-end: url(&quot;#m-as6&quot;);" d="M890,280L980,280"></path></g></g></g><g class="djs-group"><g class="djs-element djs-connection" data-element-id="SF6" style="display: block;"><g class="djs-visual"><defs><marker id="m-as7" viewBox="0 0 20 20" refX="11" refY="10" markerWidth="10" markerHeight="10" orient="auto"><path d="M 1 5 L 11 10 L 1 15 Z" style="stroke-linecap: round; stroke-linejoin: round; stroke: rgb(34, 36, 42); stroke-width: 1px; fill: rgb(34, 36, 42);"></path></marker></defs><path data-corner-radius="5" style="fill: none; stroke-linecap: round; stroke-linejoin: round; stroke: rgb(34, 36, 42); stroke-width: 2px; marker-end: url(&quot;#m-as7&quot;);" d="M1120,280L1235,280C1237.5,280,1240,282.5,1240,285L1240,385"></path></g></g></g><g class="djs-group"><g class="djs-element djs-connection" data-element-id="SF8" style="display: block;"><g class="djs-visual"><defs><marker id="m-as8" viewBox="0 0 20 20" refX="11" refY="10" markerWidth="10" markerHeight="10" orient="auto"><path d="M 1 5 L 11 10 L 1 15 Z" style="stroke-linecap: round; stroke-linejoin: round; stroke: rgb(34, 36, 42); stroke-width: 1px; fill: rgb(34, 36, 42);"></path></marker></defs><path data-corner-radius="5" style="fill: none; stroke-linecap: round; stroke-linejoin: round; stroke: rgb(34, 36, 42); stroke-width: 2px; marker-end: url(&quot;#m-as8&quot;);" d="M1310,425L1440,425C1442.5,425,1445,427.5,1445,430L1445,680"></path></g></g></g><g class="djs-group"><g class="djs-element djs-connection" data-element-id="SF7" style="display: block;"><g class="djs-visual"><defs><marker id="m-as9" viewBox="0 0 20 20" refX="11" refY="10" markerWidth="10" markerHeight="10" orient="auto"><path d="M 1 5 L 11 10 L 1 15 Z" style="stroke-linecap: round; stroke-linejoin: round; stroke: rgb(34, 36, 42); stroke-width: 1px; fill: rgb(34, 36, 42);"></path></marker></defs><path data-corner-radius="5" style="fill: none; stroke-linecap: round; stroke-linejoin: round; stroke: rgb(34, 36, 42); stroke-width: 2px; marker-end: url(&quot;#m-as9&quot;);" d="M1090,320L1090,550C1090,552.5,1092.5,555,1095,555L1170,555"></path></g></g></g><g class="djs-group"><g class="djs-element djs-connection" data-element-id="SF9" style="display: block;"><g class="djs-visual"><defs><marker id="m-as10" viewBox="0 0 20 20" refX="11" refY="10" markerWidth="10" markerHeight="10" orient="auto"><path d="M 1 5 L 11 10 L 1 15 Z" style="stroke-linecap: round; stroke-linejoin: round; stroke: rgb(34, 36, 42); stroke-width: 1px; fill: rgb(34, 36, 42);"></path></marker></defs><path data-corner-radius="5" style="fill: none; stroke-linecap: round; stroke-linejoin: round; stroke: rgb(34, 36, 42); stroke-width: 2px; marker-end: url(&quot;#m-as10&quot;);" d="M1310,555L1425,555C1427.5,555,1430,557.5,1430,560L1430,695"></path></g></g></g><g class="djs-group"><g class="djs-element djs-connection" data-element-id="SF10" style="display: block;"><g class="djs-visual"><defs><marker id="m-as11" viewBox="0 0 20 20" refX="11" refY="10" markerWidth="10" markerHeight="10" orient="auto"><path d="M 1 5 L 11 10 L 1 15 Z" style="stroke-linecap: round; stroke-linejoin: round; stroke: rgb(34, 36, 42); stroke-width: 1px; fill: rgb(34, 36, 42);"></path></marker></defs><path data-corner-radius="5" style="fill: none; stroke-linecap: round; stroke-linejoin: round; stroke: rgb(34, 36, 42); stroke-width: 2px; marker-end: url(&quot;#m-as11&quot;);" d="M1470,705L1570,705"></path></g></g></g><g class="djs-group"><g class="djs-element djs-shape" data-element-id="SF10_label" style="display: block;" transform="matrix(1 0 0 1 1494 680)"><g class="djs-visual"><text lineHeight="1.2" class="djs-label" style="font-family: Arial, sans-serif; font-size: 11px; font-weight: normal; fill: rgb(34, 36, 42);"><tspan x="0" y="9.899999999999999">відхилено</tspan></text></g></g></g><g class="djs-group"><g class="djs-element djs-connection" data-element-id="SF11" style="display: block;"><g class="djs-visual"><defs><marker id="m-as12" viewBox="0 0 20 20" refX="11" refY="10" markerWidth="10" markerHeight="10" orient="auto"><path d="M 1 5 L 11 10 L 1 15 Z" style="stroke-linecap: round; stroke-linejoin: round; stroke: rgb(34, 36, 42); stroke-width: 1px; fill: rgb(34, 36, 42);"></path></marker></defs><path data-corner-radius="5" style="fill: none; stroke-linecap: round; stroke-linejoin: round; stroke: rgb(34, 36, 42); stroke-width: 2px; marker-end: url(&quot;#m-as12&quot;);" d="M1460,695L1460,120C1460,117.5,1462.5,115,1465,115L1720,115"></path></g></g></g><g class="djs-group"><g class="djs-element djs-shape" data-element-id="SF11_label" style="display: block;" transform="matrix(1 0 0 1 1442 395)"><g class="djs-visual"><text lineHeight="1.2" class="djs-label" style="font-family: Arial, sans-serif; font-size: 11px; font-weight: normal; fill: rgb(34, 36, 42);"><tspan x="0" y="9.899999999999999">затверджено</tspan></text></g></g></g><g class="djs-group"><g class="djs-element djs-connection" data-element-id="SF12" style="display: block;"><g class="djs-visual"><defs><marker id="m-as13" viewBox="0 0 20 20" refX="11" refY="10" markerWidth="10" markerHeight="10" orient="auto"><path d="M 1 5 L 11 10 L 1 15 Z" style="stroke-linecap: round; stroke-linejoin: round; stroke: rgb(34, 36, 42); stroke-width: 1px; fill: rgb(34, 36, 42);"></path></marker></defs><path data-corner-radius="5" style="fill: none; stroke-linecap: round; stroke-linejoin: round; stroke: rgb(34, 36, 42); stroke-width: 2px; marker-end: url(&quot;#m-as13&quot;);" d="M1790,155L1790,815"></path></g></g></g><g class="djs-group"><g class="djs-element djs-connection" data-element-id="SF13" style="display: block;"><g class="djs-visual"><defs><marker id="m-as14" viewBox="0 0 20 20" refX="11" refY="10" markerWidth="10" markerHeight="10" orient="auto"><path d="M 1 5 L 11 10 L 1 15 Z" style="stroke-linecap: round; stroke-linejoin: round; stroke: rgb(34, 36, 42); stroke-width: 1px; fill: rgb(34, 36, 42);"></path></marker></defs><path data-corner-radius="5" style="fill: none; stroke-linecap: round; stroke-linejoin: round; stroke: rgb(34, 36, 42); stroke-width: 2px; marker-end: url(&quot;#m-as14&quot;);" d="M1860,115L1920,115"></path></g></g></g><g class="djs-group"><g class="djs-element djs-connection" data-element-id="SF14" style="display: block;"><g class="djs-visual"><defs><marker id="m-as15" viewBox="0 0 20 20" refX="11" refY="10" markerWidth="10" markerHeight="10" orient="auto"><path d="M 1 5 L 11 10 L 1 15 Z" style="stroke-linecap: round; stroke-linejoin: round; stroke: rgb(34, 36, 42); stroke-width: 1px; fill: rgb(34, 36, 42);"></path></marker></defs><path data-corner-radius="5" style="fill: none; stroke-linecap: round; stroke-linejoin: round; stroke: rgb(34, 36, 42); stroke-width: 2px; marker-end: url(&quot;#m-as15&quot;);" d="M1860,855L1985,855C1987.5,855,1990,852.5,1990,850L1990,315"></path></g></g></g><g class="djs-group"><g class="djs-element djs-connection" data-element-id="SF15" style="display: block;"><g class="djs-visual"><defs><marker id="m-as16" viewBox="0 0 20 20" refX="11" refY="10" markerWidth="10" markerHeight="10" orient="auto"><path d="M 1 5 L 11 10 L 1 15 Z" style="stroke-linecap: round; stroke-linejoin: round; stroke: rgb(34, 36, 42); stroke-width: 1px; fill: rgb(34, 36, 42);"></path></marker></defs><path data-corner-radius="5" style="fill: none; stroke-linecap: round; stroke-linejoin: round; stroke: rgb(34, 36, 42); stroke-width: 2px; marker-end: url(&quot;#m-as16&quot;);" d="M1990,155L1990,235"></path></g></g></g><g class="djs-group"><g class="djs-element djs-connection" data-element-id="SF16" style="display: block;"><g class="djs-visual"><defs><marker id="m-as17" viewBox="0 0 20 20" refX="11" refY="10" markerWidth="10" markerHeight="10" orient="auto"><path d="M 1 5 L 11 10 L 1 15 Z" style="stroke-linecap: round; stroke-linejoin: round; stroke: rgb(34, 36, 42); stroke-width: 1px; fill: rgb(34, 36, 42);"></path></marker></defs><path data-corner-radius="5" style="fill: none; stroke-linecap: round; stroke-linejoin: round; stroke: rgb(34, 36, 42); stroke-width: 2px; marker-end: url(&quot;#m-as17&quot;);" d="M2060,275L2120,275"></path></g></g></g></g></g></g></g></svg>
